<svg width="19" height="22" viewBox="0 0 19 22" fill="none" xmlns="http://www.w3.org/2000/svg">
<path d="M1.88462 6.68091V19.8059C1.88462 20.5278 2.50769 21.1184 3.26923 21.1184H15.7308C16.4923 21.1184 17.1154 20.5278 17.1154 19.8059V6.68091H1.88462ZM6.03846 18.4934H4.65385V9.30591H6.03846V18.4934ZM8.80769 18.4934H7.42308V9.30591H8.80769V18.4934ZM11.5769 18.4934H10.1923V9.30591H11.5769V18.4934ZM14.3462 18.4934H12.9615V9.30591H14.3462V18.4934ZM17.4615 2.74341H12.9615V1.10278C12.9604 0.84203 12.8507 0.592252 12.6562 0.40787C12.4617 0.223489 12.1982 0.119445 11.9231 0.118408L7.07692 0.118408C6.80184 0.119445 6.53834 0.223489 6.34383 0.40787C6.14932 0.592252 6.03956 0.84203 6.03846 1.10278V2.74341H1.53846C1.26304 2.74341 0.998908 2.84712 0.804158 3.03172C0.609409 3.21633 0.5 3.46671 0.5 3.72778V5.36841H18.5V3.72778C18.5 3.46671 18.3906 3.21633 18.1958 3.03172C18.0011 2.84712 17.737 2.74341 17.4615 2.74341ZM11.5769 2.74341H7.42308V1.44797H11.5769V2.74341Z" fill="white"/>
</svg>
