<svg width="24" height="25" viewBox="0 0 24 25" fill="none" xmlns="http://www.w3.org/2000/svg">
<path fill-rule="evenodd" clip-rule="evenodd" d="M5.20924 0.854402C9.7226 0.354685 14.2773 0.354685 18.7907 0.854402C21.2896 1.13449 23.3057 3.10241 23.5989 5.61009C24.1337 10.1878 24.1337 14.8122 23.5989 19.3899C23.3057 21.8976 21.2896 23.8655 18.7907 24.1456C14.2773 24.6453 9.7226 24.6453 5.20924 24.1456C2.71032 23.8655 0.694256 21.8976 0.401037 19.3899C-0.133679 14.8127 -0.133679 10.1888 0.401037 5.61155C0.54935 4.39326 1.10473 3.26076 1.97717 2.39759C2.84961 1.53441 3.98798 0.991156 5.20778 0.855861M12 5.21621C12.2901 5.21621 12.5684 5.33149 12.7736 5.53667C12.9788 5.74185 13.0941 6.02014 13.0941 6.31031V11.4059H18.1896C18.4798 11.4059 18.7581 11.5212 18.9633 11.7264C19.1685 11.9315 19.2837 12.2098 19.2837 12.5C19.2837 12.7902 19.1685 13.0685 18.9633 13.2736C18.7581 13.4788 18.4798 13.5941 18.1896 13.5941H13.0941V18.6897C13.0941 18.9799 12.9788 19.2582 12.7736 19.4633C12.5684 19.6685 12.2901 19.7838 12 19.7838C11.7098 19.7838 11.4315 19.6685 11.2263 19.4633C11.0211 19.2582 10.9059 18.9799 10.9059 18.6897V13.5941H5.81027C5.52009 13.5941 5.24181 13.4788 5.03662 13.2736C4.83144 13.0685 4.71617 12.7902 4.71617 12.5C4.71617 12.2098 4.83144 11.9315 5.03662 11.7264C5.24181 11.5212 5.52009 11.4059 5.81027 11.4059H10.9059V6.31031C10.9059 6.02014 11.0211 5.74185 11.2263 5.53667C11.4315 5.33149 11.7098 5.21621 12 5.21621Z" fill="white"/>
</svg>
